# xmcd CD database file generated by Grip 3.3.1
# 
# Track frame offsets:
#       150
#       35818
#       60353
#       90666
#       116887
#       124502
#       147390
#       152264
#       157102
#       179679
#       205058
#       222817
#       259735
#       293439
# 
# Disc length: 4225 seconds
# 
# Revision: 1
# Processed by: cddbd v1.5.2PL0 Copyright (c) Steve Scherf et al.
# Submitted via: Grip 3.3.1
# 
DISCID=c8107f0e
DTITLE=Han de Vries, hobo - Han de Vries - The Radio Recordings [CD1)
DYEAR=2011
DGENRE=Classical
TTITLE0=1 - Allegro - Concerto in F after BWV 1053, for oboe, strings and
TTITLE0=b.c. - J.S.Bach
TTITLE1=2 - Siciliano - Concerto in F after BWV 1053, for oboe, strings a
TTITLE1=nd b.c. - J.S.Bach
TTITLE2=3 - Allegro - Concerto in F after BWV 1053, for oboe, strings and
TTITLE2=b.c. - J.S.Bach
TTITLE3=I. Aria (Soprano) - Ich bin vergnügt mit meinem Glücke - Cantata
TTITLE3=Ich bin vergnügt mit meinem Glücke, BWV 84 - J.S.Bach
TTITLE4=II. Recitativo (Soprano) - Gott Ist Mir Ja Nichts Schuldig - Canta
TTITLE4=ta Ich bin vergnügt mit meinem Glücke, BWV 84 - J.S.Bach
TTITLE5=III. Aria (Soprano) - Ich Esse Mit Freuden - Cantata Ich bin vergn
TTITLE5=ügt mit meinem Glücke, BWV 84 - J.S.Bach
TTITLE6=IV. Recitativo (Soprano) - Im Schweiße meines Angesichts - Cantat
TTITLE6=a Ich bin vergnügt mit meinem Glücke, BWV 84 - J.S.Bach
TTITLE7=V. Choral (Coro) - Ich leb indes in dir vergnüget - Cantata Ich b
TTITLE7=in vergnügt mit meinem Glücke, BWV 84 - J.S.Bach
TTITLE8=1 - Allegro - Concerto for oboe, violin, and strings in D Minor, 
TTITLE8=BWV 1060R - J.S.Bach
TTITLE9=2 - Adagio - Concerto for oboe, violin, and strings in D Minor, B
TTITLE9=WV 1060R - J.S.Bach
TTITLE10=3 - Allegro - Concerto for oboe, violin, and strings in D Minor, 
TTITLE10=BWV 1060R - J.S.Bach
TTITLE11=1 - Allegretto - Oboe Concerto In B Flat Major, Wq164 - C.P.E.Bac
TTITLE11=h
TTITLE12=2 - Largo e Mesto - Oboe Concerto In B Flat Major, Wq164 - C.P.E.
TTITLE12=Bach
TTITLE13=3 - Allegro Moderato - Oboe Concerto In B Flat Major, Wq164 - C.P
TTITLE13=E.Bach
EXTD=
EXTT0=
EXTT1=
EXTT2=
EXTT3=
EXTT4=
EXTT5=
EXTT6=
EXTT7=
EXTT8=
EXTT9=
EXTT10=
EXTT11=
EXTT12=
EXTT13=
PLAYORDER=
